<svg width="29" height="29" viewBox="0 0 29 29" fill="none" xmlns="http://www.w3.org/2000/svg">
<path fill-rule="evenodd" clip-rule="evenodd" d="M11.888 0.000213009L11.7792 0.000105124C11.2666 -0.000660319 10.8167 -0.00133212 10.4158 0.156335C10.0653 0.2942 9.75495 0.517864 9.51331 0.806817C9.23696 1.13727 9.09533 1.5643 8.93395 2.05085L8.89965 2.15409L8.28478 3.9987H3.49404H0.828369C0.414156 3.9987 0.0783691 4.33449 0.0783691 4.7487C0.0783691 5.16291 0.414156 5.4987 0.828369 5.4987H2.78687L3.72381 21.4268L3.72569 21.4587C3.78646 22.4919 3.83468 23.3118 3.92656 23.9721C4.02064 24.6483 4.16746 25.2182 4.45847 25.7356C4.93155 26.5767 5.64958 27.2537 6.51698 27.6766C7.05056 27.9367 7.62814 28.0498 8.30864 28.104C8.9732 28.1569 9.7945 28.1569 10.8294 28.1569H10.8295H10.8295H10.8296H10.8615H17.452H17.4839H17.484H17.484H17.4841C18.519 28.1569 19.3403 28.1569 20.0049 28.104C20.6854 28.0498 21.2629 27.9367 21.7965 27.6766C22.6639 27.2537 23.3819 26.5767 23.855 25.7356C24.146 25.2182 24.2928 24.6483 24.3869 23.9721C24.4788 23.3118 24.527 22.4919 24.5878 21.4587L24.5897 21.4268L25.5266 5.4987H27.4851C27.8993 5.4987 28.2351 5.16291 28.2351 4.7487C28.2351 4.33449 27.8993 3.9987 27.4851 3.9987H24.8194H20.0286L19.4137 2.1541L19.3794 2.05085C19.2181 1.56431 19.0764 1.13727 18.8001 0.806817C18.5584 0.517864 18.2481 0.2942 17.8976 0.156335C17.4967 -0.00133212 17.0468 -0.000660319 16.5342 0.000105124L16.4254 0.000213009H11.888ZM19.4695 5.4987C19.4817 5.499 19.4941 5.49901 19.5064 5.4987H24.024L23.0923 21.3387C23.0292 22.4109 22.9839 23.1712 22.9012 23.7654C22.8198 24.3506 22.7092 24.713 22.5476 25.0002C22.224 25.5757 21.7327 26.0389 21.1392 26.3283C20.843 26.4727 20.4747 26.5618 19.8857 26.6087C19.2877 26.6564 18.526 26.6569 17.452 26.6569H10.8615C9.78745 26.6569 9.02581 26.6564 8.42775 26.6087C7.83879 26.5618 7.47048 26.4727 7.1743 26.3283C6.58082 26.0389 6.08953 25.5757 5.76585 25.0002C5.60431 24.713 5.49367 24.3506 5.41225 23.7654C5.32957 23.1712 5.28429 22.4109 5.22122 21.3387L4.28946 5.4987H8.80698C8.81932 5.49901 8.83164 5.499 8.84392 5.4987H19.4695ZM18.4475 3.9987L17.9907 2.62844C17.7738 1.97761 17.7185 1.85174 17.6494 1.76908C17.5689 1.67276 17.4654 1.59821 17.3486 1.55225C17.2483 1.51282 17.1114 1.50021 16.4254 1.50021H11.888C11.202 1.50021 11.0651 1.51282 10.9648 1.55225C10.848 1.59821 10.7445 1.67276 10.664 1.76908C10.5949 1.85174 10.5396 1.97761 10.3227 2.62844L9.86592 3.9987H18.4475ZM12.2411 11.4129C12.2411 10.9987 11.9053 10.6629 11.4911 10.6629C11.0769 10.6629 10.7411 10.9987 10.7411 11.4129V20.7428C10.7411 21.157 11.0769 21.4928 11.4911 21.4928C11.9053 21.4928 12.2411 21.157 12.2411 20.7428V11.4129ZM16.8223 10.6629C17.2365 10.6629 17.5723 10.9987 17.5723 11.4129V16.7443C17.5723 17.1585 17.2365 17.4943 16.8223 17.4943C16.4081 17.4943 16.0723 17.1585 16.0723 16.7443V11.4129C16.0723 10.9987 16.4081 10.6629 16.8223 10.6629Z" fill="#FEDE35"/>
</svg>
