<svg width="25" height="23" viewBox="0 0 25 23" fill="none" xmlns="http://www.w3.org/2000/svg">
<path fill-rule="evenodd" clip-rule="evenodd" d="M15.5654 0.843446C14.9018 0.153644 13.9272 -0.141439 12.9923 0.0643848C12.6296 0.144246 12.3169 0.342266 12.0446 0.576056C11.771 0.811057 11.4976 1.11782 11.2149 1.47576C10.6569 2.18252 9.98219 3.19462 9.11827 4.49051L9.11823 4.49057L9.09706 4.52233L8.88522 4.84008C8.51199 5.39992 8.4057 5.54558 8.28261 5.64675C8.15566 5.75109 8.00938 5.82938 7.85215 5.87713C7.69969 5.92343 7.51954 5.93107 6.8467 5.93107L6.21783 5.93107L6.18788 5.93107C5.42839 5.93106 4.81578 5.93106 4.31868 5.96906C3.80712 6.00817 3.35655 6.09073 2.93565 6.28919C2.14812 6.6605 1.51434 7.29428 1.14303 8.0818C0.944574 8.50271 0.862016 8.95328 0.822905 9.46483C0.784899 9.96194 0.784904 10.5745 0.78491 11.334L0.78491 11.364L0.78491 11.3939C0.784904 12.1534 0.784899 12.766 0.822905 13.2631C0.862016 13.7747 0.944574 14.2253 1.14303 14.6462C1.51434 15.4337 2.14812 16.0675 2.93565 16.4388C3.35655 16.6372 3.80712 16.7198 4.31867 16.7589C4.81576 16.7969 5.42833 16.7969 6.18776 16.7969L6.18782 16.7969L6.21783 16.7969L6.84669 16.7969C7.51954 16.7969 7.69969 16.8045 7.85215 16.8508C8.00938 16.8986 8.15566 16.9769 8.28261 17.0812C8.4057 17.1824 8.51199 17.328 8.88522 17.8879L9.09706 18.2056L9.11826 18.2374C9.98218 19.5333 10.6569 20.5454 11.2149 21.2522C11.4976 21.6101 11.771 21.9169 12.0446 22.1519C12.3169 22.3857 12.6296 22.5837 12.9923 22.6636C13.9272 22.8694 14.9018 22.5743 15.5654 21.8845C15.8229 21.6169 15.9733 21.2786 16.0701 20.9331C16.1675 20.5858 16.2248 20.1789 16.2614 19.7243C16.3337 18.8267 16.3337 17.6103 16.3337 16.0528L16.3337 16.0527L16.3337 16.0146L16.3337 6.71338L16.3337 6.67521C16.3337 5.11772 16.3337 3.90132 16.2614 3.0037C16.2248 2.54911 16.1675 2.1422 16.0701 1.79488C15.9733 1.44935 15.8229 1.1111 15.5654 0.843446ZM13.3149 1.5293C13.7398 1.43574 14.1828 1.56987 14.4845 1.88342C14.5063 1.90614 14.5654 1.98439 14.6258 2.19963C14.6856 2.41307 14.733 2.7112 14.7662 3.12408C14.8331 3.95406 14.8337 5.10972 14.8337 6.71338L14.8337 16.0146C14.8337 17.6182 14.8331 18.7739 14.7662 19.6039C14.733 20.0168 14.6856 20.3149 14.6258 20.5283C14.5654 20.7436 14.5063 20.8218 14.4845 20.8445C14.1828 21.1581 13.7398 21.2922 13.3149 21.1987C13.2841 21.1919 13.1915 21.1596 13.0219 21.0139C12.8537 20.8695 12.6489 20.6478 12.3922 20.3227C11.8762 19.6692 11.2347 18.7079 10.3451 17.3736L10.1333 17.0558L10.0813 16.9778L10.0813 16.9778C9.78525 16.533 9.5525 16.1833 9.23505 15.9224C8.95576 15.6928 8.63395 15.5206 8.28802 15.4156C7.89484 15.2962 7.47478 15.2965 6.94049 15.2969L6.94047 15.2969L6.84669 15.2969L6.21783 15.2969C5.42138 15.2969 4.8662 15.2964 4.43302 15.2633C4.00777 15.2308 3.76208 15.1701 3.57535 15.082C3.10284 14.8592 2.72257 14.479 2.49978 14.0065C2.41174 13.8197 2.35105 13.574 2.31854 13.1488C2.28542 12.7156 2.28491 12.1604 2.28491 11.364C2.28491 10.5675 2.28542 10.0124 2.31854 9.57918C2.35105 9.15393 2.41174 8.90823 2.49978 8.72151C2.72257 8.24899 3.10284 7.86873 3.57535 7.64594C3.76208 7.5579 4.00777 7.49721 4.43302 7.4647C4.86621 7.43158 5.42138 7.43107 6.21783 7.43107L6.8467 7.43107L6.94046 7.43111C7.47477 7.4315 7.89484 7.43181 8.28802 7.3124C8.63395 7.20735 8.95576 7.03512 9.23505 6.80557C9.55251 6.54465 9.78527 6.19496 10.0813 5.75017L10.1333 5.67213L10.3451 5.35438C11.2347 4.02005 11.8762 3.05881 12.3922 2.40529C12.6489 2.08019 12.8537 1.85844 13.0219 1.71401C13.1915 1.56838 13.2841 1.53608 13.3149 1.5293ZM19.6429 3.92309C19.8729 3.57863 20.3386 3.48586 20.6831 3.7159C23.0086 5.26887 24.5288 8.13368 24.5288 11.364C24.5288 14.5943 23.0086 17.4591 20.6831 19.0121C20.3386 19.2421 19.8729 19.1493 19.6429 18.8049C19.4128 18.4604 19.5056 17.9947 19.8501 17.7646C21.7238 16.5134 23.0288 14.1368 23.0288 11.364C23.0288 8.59115 21.7238 6.2146 19.8501 4.96332C19.5056 4.73328 19.4128 4.26755 19.6429 3.92309ZM18.4721 8.606C18.7022 8.26154 19.1679 8.16878 19.5124 8.39881C20.4381 9.01703 21.0166 10.1347 21.0166 11.364C21.0166 12.5932 20.4381 13.7109 19.5124 14.3291C19.1679 14.5592 18.7022 14.4664 18.4721 14.122C18.2421 13.7775 18.3349 13.3118 18.6793 13.0817C19.1533 12.7652 19.5166 12.1358 19.5166 11.364C19.5166 10.5922 19.1533 9.96276 18.6793 9.64623C18.3349 9.4162 18.2421 8.95047 18.4721 8.606Z" fill="#FEDE35"/>
</svg>
