<svg width="29" height="29" viewBox="0 0 29 29" fill="none" xmlns="http://www.w3.org/2000/svg">
<path fill-rule="evenodd" clip-rule="evenodd" d="M14.0784 0C6.3031 0 0 6.3031 0 14.0784C0 21.8536 6.3031 28.1567 14.0784 28.1567C21.8536 28.1567 28.1567 21.8536 28.1567 14.0784C28.1567 6.3031 21.8536 0 14.0784 0ZM10.0799 16.4124V11.7444C10.0799 10.3311 10.0799 9.62448 10.3757 9.22621C10.6336 8.87905 11.0287 8.66006 11.4597 8.62541C11.9542 8.58565 12.5535 8.96017 13.7519 9.70921L17.4863 12.0432C18.5661 12.7181 19.106 13.0555 19.2912 13.4875C19.4529 13.8649 19.4529 14.2919 19.2912 14.6693C19.106 15.1013 18.5661 15.4387 17.4863 16.1136L13.7519 18.4476C12.5535 19.1966 11.9542 19.5711 11.4597 19.5314C11.0287 19.4967 10.6336 19.2777 10.3757 18.9306C10.0799 18.5323 10.0799 17.8257 10.0799 16.4124Z" fill="url(#paint0_linear_1_3012)"/>
<defs>
<linearGradient id="paint0_linear_1_3012" x1="0" y1="14.0784" x2="28.1567" y2="14.0784" gradientUnits="userSpaceOnUse">
<stop stop-color="#FEDE35"/>
<stop offset="1" stop-color="#EDB322"/>
</linearGradient>
</defs>
</svg>
