<svg width="29" height="29" viewBox="0 0 29 29" fill="none" xmlns="http://www.w3.org/2000/svg">
<path fill-rule="evenodd" clip-rule="evenodd" d="M5.57686 0.75C5.57686 0.335786 5.24108 0 4.82686 0C4.41265 0 4.07686 0.335786 4.07686 0.75L4.07686 4.05739C1.81071 4.41698 0.0783691 6.37969 0.0783691 8.74701C0.0783691 11.3695 2.20435 13.4955 4.82689 13.4955C7.44942 13.4955 9.57541 11.3695 9.57541 8.74701C9.57541 6.37967 7.84304 4.41695 5.57686 4.05738L5.57686 0.75ZM4.82126 5.4985L4.82686 5.49852L4.83248 5.4985C6.62401 5.50151 8.07541 6.95477 8.07541 8.74701C8.07541 10.5411 6.621 11.9955 4.82689 11.9955C3.03278 11.9955 1.57837 10.5411 1.57837 8.74701C1.57837 6.95478 3.02974 5.50154 4.82126 5.4985ZM23.4866 0C23.9008 0 24.2366 0.335786 24.2366 0.75V4.05738C26.5028 4.41695 28.2351 6.37967 28.2351 8.74701C28.2351 11.3695 26.1091 13.4955 23.4866 13.4955C20.8641 13.4955 18.7381 11.3695 18.7381 8.74701C18.7381 6.37969 20.4704 4.41698 22.7366 4.05739V0.75C22.7366 0.335786 23.0724 0 23.4866 0ZM23.4866 5.49852L23.481 5.4985C21.6894 5.50154 20.2381 6.95478 20.2381 8.74701C20.2381 10.5411 21.6925 11.9955 23.4866 11.9955C25.2807 11.9955 26.7351 10.5411 26.7351 8.74701C26.7351 6.95477 25.2837 5.50151 23.4922 5.4985L23.4866 5.49852ZM14.9068 24.0994C17.173 23.7398 18.9054 21.7771 18.9054 19.4097C18.9054 16.7872 16.7794 14.6612 14.1569 14.6612C11.5343 14.6612 9.40833 16.7872 9.40833 19.4097C9.40833 21.7771 11.1407 23.7398 13.4068 24.0994V27.4068C13.4068 27.821 13.7426 28.1568 14.1568 28.1568C14.571 28.1568 14.9068 27.821 14.9068 27.4068V24.0994ZM23.4866 15.9941C23.9008 15.9941 24.2366 16.3299 24.2366 16.7441V27.4068C24.2366 27.821 23.9008 28.1568 23.4866 28.1568C23.0724 28.1568 22.7366 27.821 22.7366 27.4068V16.7441C22.7366 16.3299 23.0724 15.9941 23.4866 15.9941ZM14.9068 0.75C14.9068 0.335786 14.571 0 14.1568 0C13.7426 0 13.4068 0.335786 13.4068 0.75L13.4068 11.4127C13.4068 11.8269 13.7426 12.1627 14.1568 12.1627C14.571 12.1627 14.9068 11.8269 14.9068 11.4127L14.9068 0.75ZM4.82686 15.9941C5.24108 15.9941 5.57686 16.3299 5.57686 16.7441L5.57686 27.4068C5.57686 27.821 5.24108 28.1568 4.82686 28.1568C4.41265 28.1568 4.07686 27.821 4.07686 27.4068L4.07686 16.7441C4.07686 16.3299 4.41265 15.9941 4.82686 15.9941ZM10.9083 19.4097C10.9083 17.6156 12.3627 16.1612 14.1569 16.1612C15.951 16.1612 17.4054 17.6156 17.4054 19.4097C17.4054 21.2038 15.951 22.6583 14.1569 22.6583C12.3627 22.6583 10.9083 21.2038 10.9083 19.4097Z" fill="#FEDE35"/>
</svg>
