<svg width="29" height="29" viewBox="0 0 29 29" fill="none" xmlns="http://www.w3.org/2000/svg">
<path fill-rule="evenodd" clip-rule="evenodd" d="M21.8914 0.175742C22.2086 0.442161 22.2497 0.91525 21.9833 1.23242L15.3911 9.08024L21.765 16.6682C21.8678 16.6631 21.9712 16.6605 22.0753 16.6605C25.4339 16.6605 28.1566 19.3832 28.1566 22.7418C28.1566 26.1004 25.4339 28.8232 22.0753 28.8232C18.7167 28.8232 15.9939 26.1004 15.9939 22.7418C15.9939 20.0818 17.7017 17.8207 20.0806 16.9951L14.4116 10.2463L8.57565 17.1939C10.6904 18.1461 12.1627 20.272 12.1627 22.7418C12.1627 26.1004 9.43998 28.8232 6.08135 28.8232C2.72271 28.8232 -4.56355e-06 26.1004 -3.9763e-06 22.7418C-3.38906e-06 19.3832 2.72271 16.6605 6.08135 16.6605C6.39573 16.6605 6.70454 16.6843 7.00607 16.7303L13.8285 8.60832C13.8339 8.60171 13.8394 8.59518 13.845 8.58873L20.8347 0.267627C21.1011 -0.0495384 21.5742 -0.0906765 21.8914 0.175742ZM17.4939 22.7418C17.4939 20.2116 19.5451 18.1605 22.0753 18.1605C24.6055 18.1605 26.6566 20.2116 26.6566 22.7418C26.6566 25.272 24.6055 27.3232 22.0753 27.3232C19.5451 27.3232 17.4939 25.272 17.4939 22.7418ZM1.5 22.7418C1.5 20.2116 3.55114 18.1605 6.08135 18.1605C8.61156 18.1605 10.6627 20.2116 10.6627 22.7418C10.6627 25.272 8.61156 27.3232 6.08135 27.3232C3.55114 27.3232 1.5 25.272 1.5 22.7418ZM6.83996 1.23242C6.57354 0.91525 6.61467 0.442161 6.93184 0.175742C7.24901 -0.0906765 7.72209 -0.0495384 7.98851 0.267627L12.4668 5.59898C12.7333 5.91614 12.6921 6.38923 12.375 6.65565C12.0578 6.92207 11.5847 6.88093 11.3183 6.56376L6.83996 1.23242Z" fill="#FEDE35"/>
</svg>
